<?xml version="1.0" encoding="iso-8859-1"?>
<!-- Generator: Adobe Illustrator 19.0.0, SVG Export Plug-In . SVG Version: 6.00 Build 0)  -->
<svg xmlns="http://www.w3.org/2000/svg" xmlns:xlink="http://www.w3.org/1999/xlink" version="1.1" id="Layer_1" x="0px" y="0px" viewBox="0 0 512 512" style="enable-background:new 0 0 512 512;" xml:space="preserve" width="512" height="512">
<defs>
	<linearGradient id="mainGradient" gradientTransform="rotate(90)">
		<stop offset="5%"  stop-color="#f26f13" />
		<stop offset="95%" stop-color="#ff23a4" />
	</linearGradient>
</defs>
<g id="XMLID_949_">
	<path id="XMLID_1482_" style="fill:#F8F8F8;" d="M384,142V30c0-11.046-8.954-20-20-20H30c-11.046,0-20,8.954-20,20v452   c0,11.046,8.954,20,20,20h354V142z"/>
	<path id="XMLID_1510_" style="fill:url('#mainGradient');" d="M482,214H114c-11.046,0-20,8.954-20,20v248c0,11.046,8.954,20,20,20h368   c11.046,0,20-8.954,20-20V234C502,222.954,493.046,214,482,214z"/>
	<path id="XMLID_1582_" style="fill:#ff7f3b;" d="M482,214H114c-11.046,0-20,8.954-20,20v99h408v-99   C502,222.954,493.046,214,482,214z"/>
	<path id="XMLID_1550_" style="fill:#D5F5FB;" d="M298,398L298,398c-19.882,0-36-16.118-36-36v-44h72v44   C334,381.882,317.882,398,298,398z"/>
	<path id="XMLID_1580_" style="fill:#D5F5FB;" d="M197,214h-40v-15.75c0-10.079,8.171-18.25,18.25-18.25h3.5   c10.079,0,18.25,8.171,18.25,18.25V214z"/>
	<path id="XMLID_1564_" style="fill:#D5F5FB;" d="M438,214h-40v-15.75c0-10.079,8.171-18.25,18.25-18.25h3.5   c10.079,0,18.25,8.171,18.25,18.25V214z"/>
	<g id="XMLID_134_">
		<path id="XMLID_164_" d="M482,204h-34v-5.75c0-12.708-8.436-23.48-20-27.018V160.75c0-15.853-12.897-28.75-28.75-28.75H394V30    c0-16.542-13.458-30-30-30H30C13.458,0,0,13.458,0,30v452c0,16.542,13.458,30,30,30h84h270h98c16.542,0,30-13.458,30-30V234    C512,217.458,498.542,204,482,204z M492,234v17h-76.417c-5.522,0-10,4.477-10,10s4.478,10,10,10H492v52H344v-5    c0-5.523-4.478-10-10-10h-72c-5.522,0-10,4.477-10,10v5H104v-89c0-5.514,4.486-10,10-10h368C487.514,224,492,228.486,492,234z     M272,328h52v34c0,14.336-11.663,26-26,26s-26-11.664-26-26V328z M175.25,190h3.5c4.549,0,8.25,3.701,8.25,8.25V204h-20v-5.75    C167,193.701,170.701,190,175.25,190z M408,204v-5.75c0-4.549,3.701-8.25,8.25-8.25h3.5c4.549,0,8.25,3.701,8.25,8.25V204H408z     M408,160.75v10.482c-11.564,3.538-20,14.31-20,27.018V204H207v-5.75c0-12.708-8.436-23.48-20-27.018V160.75    c0-4.825,3.925-8.75,8.75-8.75h203.5C404.075,152,408,155.925,408,160.75z M20,482V30c0-5.514,4.486-10,10-10h334    c5.514,0,10,4.486,10,10v102H195.75c-15.853,0-28.75,12.897-28.75,28.75v10.482c-11.564,3.538-20,14.31-20,27.018V204h-33    c-16.542,0-30,13.458-30,30v248c0,3.506,0.61,6.87,1.72,10H30C24.486,492,20,487.514,20,482z M482,492h-98H114    c-5.514,0-10-4.486-10-10V343h148v19c0,25.364,20.636,46,46,46s46-20.636,46-46v-19h148v139C492,487.514,487.514,492,482,492z"/>
		<path id="XMLID_1042_" d="M64,74h131c5.522,0,10-4.477,10-10s-4.478-10-10-10H64c-5.522,0-10,4.477-10,10S58.478,74,64,74z"/>
		<path id="XMLID_1068_" d="M235,74c2.63,0,5.21-1.07,7.069-2.93C243.93,69.21,245,66.63,245,64c0-2.63-1.07-5.21-2.931-7.07    C240.21,55.07,237.63,54,235,54s-5.21,1.07-7.07,2.93c-1.86,1.86-2.93,4.44-2.93,7.07c0,2.63,1.069,5.21,2.93,7.07    S232.37,74,235,74z"/>
		<path id="XMLID_1097_" d="M64,122h67.167c5.522,0,10-4.477,10-10s-4.478-10-10-10H64c-5.522,0-10,4.477-10,10S58.478,122,64,122z"/>
		<path id="XMLID_1098_" d="M141.167,160c0-5.523-4.478-10-10-10H64c-5.522,0-10,4.477-10,10s4.478,10,10,10h67.167    C136.689,170,141.167,165.523,141.167,160z"/>
		<path id="XMLID_1099_" d="M375.58,251c-2.63,0-5.21,1.07-7.07,2.93c-1.86,1.86-2.93,4.44-2.93,7.07c0,2.63,1.069,5.21,2.93,7.07    s4.44,2.93,7.07,2.93c2.64,0,5.21-1.07,7.069-2.93c1.87-1.86,2.931-4.44,2.931-7.07c0-2.63-1.061-5.21-2.931-7.07    C380.8,252.07,378.22,251,375.58,251z"/>
		<path id="XMLID_1100_" d="M298,375c5.522,0,10-4.477,10-10v-7c0-5.523-4.478-10-10-10s-10,4.477-10,10v7    C288,370.523,292.478,375,298,375z"/>
	</g>
</g>















</svg>
