<?xml version="1.0" encoding="iso-8859-1"?>
<!-- Generator: Adobe Illustrator 19.0.0, SVG Export Plug-In . SVG Version: 6.00 Build 0)  -->
<svg xmlns="http://www.w3.org/2000/svg" xmlns:xlink="http://www.w3.org/1999/xlink" version="1.1" id="Layer_1" x="0px" y="0px" viewBox="0 0 512.003 512.003" style="enable-background:new 0 0 512.003 512.003;" xml:space="preserve" width="512" height="512">
<defs>
	<linearGradient id="mainGradient" gradientTransform="rotate(90)">
		<stop offset="5%"  stop-color="#f26f13" />
		<stop offset="95%" stop-color="#ff23a4" />
	</linearGradient>
</defs>
<g id="XMLID_1484_">
	<path id="XMLID_2202_" style="fill:#AFABB0;" d="M301.428,86.972L301.428,86.972c-23.727,23.727-55.908,37.057-89.463,37.057   h-46.836v-23.156c0-50.188,40.685-90.873,90.873-90.873h0c50.188,0,90.873,40.685,90.873,90.873v23.156h-38.978   c-11.025,0-21.599-4.38-29.395-12.176v0L301.428,86.972z"/>
	<path id="XMLID_2201_" style="fill:#FED2A4;" d="M165.129,124.029v48.765c0,50.188,40.685,90.873,90.873,90.873h0   c50.188,0,90.873-40.685,90.873-90.873v-48.765h-47.642c-12.386,0-18.777-14.805-10.281-23.819l12.477-13.238l0,0   c-26.34,23.849-60.603,37.057-96.136,37.057H165.129z"/>
	<path id="XMLID_2200_" style="fill:#FED2A4;" d="M360.874,176.029h-14v-52h14c14.359,0,26,11.641,26,26v0   C386.874,164.389,375.234,176.029,360.874,176.029z"/>
	<path id="XMLID_1947_" style="fill:#FED2A4;" d="M295.683,256.127v34.236l0,0c-21.916,21.916-57.448,21.916-79.364,0l0,0v-34.236   H295.683z"/>
	<path id="XMLID_1946_" style="fill:url('#mainGradient');" d="M362.516,290.363h-66.833l0,0c-21.916,21.916-57.448,21.916-79.364,0l0,0h-66.833   c-59.362,0-107.485,48.123-107.485,107.485V502h428V397.848C470.001,338.486,421.879,290.363,362.516,290.363z"/>
	<path id="XMLID_1460_" style="fill:#FFFFFF;" d="M295.683,290.363L295.683,290.363c-21.916,21.916-57.448,21.916-79.364,0l0,0   h-53.998L255.662,502l93.34-211.637H295.683z"/>
	<polygon id="XMLID_1524_" style="fill:#FF838E;" points="233.628,451.503 256.001,360.389 278.375,451.503 256.001,502  "/>
	
		<rect id="XMLID_1066_" x="236.715" y="314.648" transform="matrix(0.7071 -0.7071 0.7071 0.7071 -161.0055 278.4876)" style="fill:#FF838E;" width="37.893" height="37.893"/>
	<path id="XMLID_1592_" style="fill:#FED2A4;" d="M151.129,176.029h14v-52h-14c-14.359,0-26,11.641-26,26v0   C125.129,164.389,136.769,176.029,151.129,176.029z"/>
	<g id="XMLID_734_">
		<path id="XMLID_750_" d="M405.321,386.18c-2.63,0-5.21,1.07-7.07,2.93c-1.86,1.86-2.93,4.44-2.93,7.07s1.07,5.21,2.93,7.07    c1.86,1.859,4.44,2.93,7.07,2.93s5.21-1.07,7.07-2.93c1.86-1.86,2.93-4.44,2.93-7.07s-1.07-5.21-2.93-7.07    C410.531,387.25,407.951,386.18,405.321,386.18z"/>
		<path id="XMLID_762_" d="M190.781,46.569c2.63,0,5.21-1.069,7.07-2.93c1.86-1.859,2.93-4.439,2.93-7.07    c0-2.63-1.07-5.21-2.93-7.069c-1.86-1.86-4.44-2.931-7.07-2.931s-5.21,1.07-7.07,2.931c-1.86,1.859-2.93,4.439-2.93,7.069    c0,2.631,1.07,5.211,2.93,7.07C185.571,45.5,188.151,46.569,190.781,46.569z"/>
		<path id="XMLID_765_" d="M362.517,280.363h-13.334c-0.024,0-0.048,0-0.072,0h-43.428v-19.806    c26.896-15.285,46.116-42.573,50.323-74.528h4.869c19.851,0,36-16.149,36-36s-16.149-36-36-36h-4v-13.156    C356.875,45.251,311.623,0,256.001,0c-11.458,0-22.704,1.908-33.423,5.672c-5.211,1.83-7.952,7.537-6.123,12.748    c1.83,5.21,7.536,7.951,12.749,6.123C237.789,21.528,246.805,20,256.001,20c44.594,0,80.873,36.279,80.873,80.873v13.156h-28.979    c-6.159,0-12.045-1.759-17.096-5.027c6.248-4.438,12.17-9.43,17.699-14.959c3.905-3.905,3.906-10.237,0-14.143    c-3.905-3.903-10.237-3.904-14.142,0c-22.008,22.008-51.269,34.128-82.392,34.128h-36.836v-13.156    c0-8.638,1.352-17.135,4.019-25.255c1.723-5.247-1.134-10.898-6.381-12.621c-5.245-1.721-10.897,1.134-12.621,6.381    c-3.329,10.138-5.017,20.734-5.017,31.495v13.156h-4c-19.851,0-36,16.149-36,36s16.149,36,36,36h4.868    c4.207,31.955,23.427,59.242,50.323,74.528v19.806h-44.084c-0.036,0-0.072-0.001-0.108,0h-12.641    c-64.781,0-117.485,52.704-117.485,117.485V502c0,5.522,4.477,10,10,10h213.598c0.019,0,0.038,0.003,0.057,0.003    c0.002,0,0.004,0,0.005,0s0.004,0,0.005,0c0.019,0,0.038-0.003,0.057-0.003h214.277c5.523,0,10-4.478,10-10V397.849    C480.001,333.067,427.298,280.363,362.517,280.363z M212.394,300.363c6.658,5.86,14.306,10.25,22.551,13.01l-13.15,13.15    c-1.875,1.876-2.929,4.419-2.929,7.071s1.054,5.195,2.929,7.071l23.083,23.083l-14.042,57.185l-53.176-120.571H212.394z     M256.001,402.324l11.692,47.615l-12.032,27.28l-11.595-26.291L256.001,402.324z M255.662,346.247l-12.652-12.652l12.652-12.652    l12.652,12.652L255.662,346.247z M280.922,419.945l-13.933-56.742l22.537-22.537c1.875-1.876,2.929-4.419,2.929-7.071    s-1.054-5.195-2.929-7.071l-12.981-12.981c8.441-2.749,16.267-7.198,23.063-13.179h34.053L280.922,419.945z M376.875,150.029    c0,8.822-7.178,16-16,16h-4v-32h4C369.697,134.029,376.875,141.207,376.875,150.029z M135.129,150.029c0-8.822,7.178-16,16-16h4    v32h-4C142.307,166.029,135.129,158.852,135.129,150.029z M175.129,172.813v-38.784h36.836c21.35,0,41.948-4.875,60.535-14.085    c9.61,9.087,22.116,14.085,35.396,14.085h28.979v38.765c0,44.594-36.279,80.873-80.873,80.873    C211.414,253.667,175.139,217.398,175.129,172.813z M256.001,273.667c10.326,0,20.293-1.563,29.682-4.459v16.776    c-8.299,7.001-18.698,10.816-29.682,10.816s-21.382-3.815-29.682-10.816v-16.776C235.708,272.104,245.675,273.667,256.001,273.667    z M52.001,397.849c0-53.754,43.731-97.485,97.485-97.485h6.317L240.322,492H116.001v-95.818c0-5.522-4.477-10-10-10    s-10,4.478-10,10V492h-44V397.849z M460.001,492h-44.68v-55.818c0-5.522-4.477-10-10-10s-10,4.478-10,10V492h-124.32    l84.519-191.637h6.996c53.753,0,97.485,43.731,97.485,97.485V492z"/>
	</g>
</g>















</svg>
