<?xml version="1.0" encoding="iso-8859-1"?>
<!-- Generator: Adobe Illustrator 19.0.0, SVG Export Plug-In . SVG Version: 6.00 Build 0)  -->
<svg version="1.1" id="Capa_1" xmlns="http://www.w3.org/2000/svg" xmlns:xlink="http://www.w3.org/1999/xlink" x="0px" y="0px"
	 viewBox="0 0 496 496" style="enable-background:new 0 0 496 496;" xml:space="preserve">
<defs>
	<linearGradient id="mainGradient" gradientTransform="rotate(90)">
		<stop offset="5%"  stop-color="#f26f13" />
		<stop offset="95%" stop-color="#ff23a4" />
	</linearGradient>
</defs>
<circle style="fill:url('#mainGradient');" cx="248" cy="248" r="240"/>
<rect x="8" y="80" style="fill:#ECECEC;" width="480" height="336"/>
<path style="fill:#D3A06C;" d="M96,320c-24,0-40-32-40-32l0,0c14.336-4.776,24-18.192,24-33.296V232v-40c0-44.184,35.816-80,80-80
	l0,0c44.184,0,80,35.816,80,80v40v22.704c0,15.104,9.664,28.52,24,33.296l0,0c0,0-16,32-40,32H96z"/>
<path style="fill:#B27946;" d="M240,254.704V232v-40c0-44.184-35.816-80-80-80c-2.704,0-5.368,0.144-8,0.4
	c40.424,4.016,72,38.112,72,79.6v40v22.704c0,15.104,9.664,28.52,24,33.296c0,0-16,32-40,32h16c24,0,40-32,40-32
	C249.664,283.224,240,269.808,240,254.704z"/>
<path style="fill:#E6646E;" d="M184,312l51.304,10.264c17.624,3.528,31.8,16.6,36.736,33.88L280,384H40l7.96-27.856
	c4.936-17.28,19.112-30.36,36.736-33.88L136,312H184z"/>
<path style="fill:#E6646E;" d="M272.04,356.144c-4.936-17.28-19.112-30.36-36.736-33.88L184,312h-24l51.304,10.264
	c17.624,3.528,31.8,16.6,36.736,33.88L256,384h24L272.04,356.144z"/>
<g>
	<path style="fill:#F9E0A6;" d="M136,296v16c0,13.256,10.744,24,24,24l0,0c13.256,0,24-10.744,24-24v-16H136z"/>
	<path style="fill:#F9E0A6;" d="M208,208h8c13.256,0,24,10.744,24,24l0,0c0,13.256-10.744,24-24,24h-8V208z"/>
	<path style="fill:#F9E0A6;" d="M112,208h-8c-13.256,0-24,10.744-24,24l0,0c0,13.256,10.744,24,24,24h8V208z"/>
	<path style="fill:#F9E0A6;" d="M104,208v40c0,30.928,25.072,56,56,56l0,0c30.928,0,56-25.072,56-56v-40l0,0
		c-20.488,0-40.136-8.136-54.624-22.624L160,184l-1.376,1.376C144.136,199.864,124.488,208,104,208L104,208z"/>
</g>
<path style="fill:#EABD8C;" d="M192,204.112V208v40c0,26.808-18.848,49.184-44,54.68c3.872,0.848,7.88,1.32,12,1.32
	c30.928,0,56-25.072,56-56v-40C207.76,208,199.688,206.624,192,204.112z"/>
<g>
	<rect x="280" y="112" style="fill:#e664a5;" width="176" height="128"/>
	<rect x="312" y="288" style="fill:#e664a5;" width="144" height="96"/>
</g>
<path d="M496,72h-73.368C375.88,25.576,314.024,0,248,0S120.12,25.576,73.368,72H0v352h73.368C120.12,470.424,181.976,496,248,496
	s127.872-25.576,174.632-72H496V72z M248,16c56.152,0,109.064,19.784,151.096,56H96.904C138.936,35.784,191.848,16,248,16z M248,480
	c-56.144,0-109.064-19.784-151.096-56h302.184C357.064,460.216,304.152,480,248,480z M480,408H16V88h464V408z"/>
<path d="M279.736,353.944c-4.576-16.008-15.848-28.728-30.544-35.432c13.536-10.464,21.48-25.952,21.968-26.936l4.128-8.248
	l-8.752-2.912C255.448,276.712,248,266.384,248,254.704V232v-40c0-48.52-39.48-88-88-88s-88,39.48-88,88v40v22.704
	c0,11.68-7.448,22.008-18.528,25.712l-8.752,2.912l4.128,8.248c0.496,0.976,8.432,16.472,21.968,26.936
	c-14.696,6.712-25.968,19.424-30.544,35.432L29.392,392h261.216L279.736,353.944z M252.56,291.448
	c-5.496,8.064-15.8,20.168-28.064,20.496L192,305.44v-2.104c14.8-8.592,25.824-22.928,30.048-39.952
	c3.704-0.712,7.12-2.136,10.256-4.008C233.752,272.728,241.272,284.536,252.56,291.448z M112,215.624
	c17.816-1.648,34.48-8.776,48-20.584c13.52,11.808,30.184,18.936,48,20.584V248c0,26.472-21.528,48-48,48s-48-21.528-48-48V215.624z
	 M144,309.896c5.128,1.328,10.464,2.104,16,2.104s10.872-0.776,16-2.104V312c0,8.824-7.176,16-16,16s-16-7.176-16-16V309.896z
	 M224,245.776v-27.552c4.76,2.776,8,7.88,8,13.776S228.76,243,224,245.776z M160,120c39.696,0,72,32.304,72,72v12.448
	c-4.728-2.752-10.144-4.448-16-4.448c-18.496,0-35.888-7.2-48.976-20.288L160,172.688l-7.024,7.024
	C139.888,192.8,122.496,200,104,200c-5.856,0-11.272,1.696-16,4.448V192C88,152.304,120.304,120,160,120z M96,218.224v27.552
	c-4.76-2.776-8-7.88-8-13.776S91.24,221,96,218.224z M87.696,259.384c3.128,1.872,6.552,3.288,10.256,4.008
	c4.224,17.024,15.248,31.36,30.048,39.952v2.104l-32.504,6.496c-11.664-0.32-22.096-11.688-28.104-20.472
	C78.704,284.56,86.24,272.744,87.696,259.384z M230.248,376l-6.488-25.936l-15.52,3.872L213.752,376H106.248l5.512-22.064
	l-15.52-3.872L89.752,376H50.608l5.048-17.664c4.136-14.472,15.864-25.28,30.616-28.232l43.312-8.664
	C133.64,334.464,145.664,344,160,344s26.36-9.536,30.416-22.56l43.312,8.664c14.752,2.952,26.48,13.776,30.616,28.232L269.392,376
	H230.248z"/>
<path d="M464,104H272v144h192V104z M448,232H288V120h160V232z"/>
<rect x="312" y="136" width="112" height="16"/>
<rect x="312" y="168" width="112" height="16"/>
<rect x="408" y="200" width="16" height="16"/>
<rect x="312" y="200" width="80" height="16"/>
<path d="M304,392h160V280H304V392z M320,296h128v80H320V296z"/>
<rect x="336" y="312" width="96" height="16"/>
<rect x="416" y="344" width="16" height="16"/>
<rect x="336" y="344" width="16" height="16"/>
<rect x="376" y="344" width="16" height="16"/>
<g>
</g>
<g>
</g>
<g>
</g>
<g>
</g>
<g>
</g>
<g>
</g>
<g>
</g>
<g>
</g>
<g>
</g>
<g>
</g>
<g>
</g>
<g>
</g>
<g>
</g>
<g>
</g>
<g>
</g>
</svg>
