<defs>
	<linearGradient id="mainGradient" gradientTransform="rotate(90)">
		<stop offset="5%"  stop-color="#f26f13" />
		<stop offset="95%" stop-color="#ff23a4" />
	</linearGradient>
</defs>
<svg id="Layer_1" enable-background="new 0 0 511.97 511.97" height="512" viewBox="0 0 511.97 511.97" width="512" xmlns="http://www.w3.org/2000/svg"><g><path clip-rule="evenodd" d="m104.6 361.591c-2.07-2.916-3.183-6.41-2.856-10.148l19.279-220.408c.88-10.067 8.675-18.367 19.277-18.367h231.342c10.603 0 18.398 8.301 19.278 18.367l19.28 220.408c.881 10.067-8.676 18.367-19.278 18.367h-26.372c-1.659-10.951-11.353-18.912-22.174-17.913-10.808.998-76.341 8.46-87.147 9.458-35.454 3.275-96.696-22.123-150.629.236z" fill="#e2c4ff" fill-rule="evenodd"/><g fill="url('#mainGradient')"><path d="m510.71 365.515c-4.033-13.877-18.75-26.504-41.526-21.441-.059.013-.117.027-.176.041l-94.792 22.888c-1.37-7.103-5.086-13.446-10.673-18.116-6.245-5.22-14.089-7.689-22.086-6.949-10.437.955-76.219 8.444-87.147 9.458-11.094 1.026-25.622-1.159-42.441-3.688-72.015-13.28-138.206-6.341-178.181 69.107l-29.79 52.611c-5.189 9.334-5.197 20.6-.02 29.401 4.782 8.129 13.23 12.983 22.598 12.982h104.464c17.39 0 23.722-3.315 32.264-16.89l8.692-13.813 59.644 2.845c44.066 2.103 58.131-.135 100.323-15.955 44.739-16.496 117.666-47.7 157.593-62.929.032-.011.065-.023.099-.035 19.391-7.006 25.32-25.183 21.155-39.517zm-27.913 20.694c-8.138 2.851-27.615 10.824-52.26 20.911-32.665 13.371-73.317 30.01-105.696 42.15-39.722 14.894-50.942 16.677-92.349 14.705l-65.476-3.123c-3.607-.159-7.019 1.611-8.94 4.663l-11.801 18.754c-2.536 4.031-3.975 5.84-5.132 6.453-1.819.965-6.409 1.088-10.204 1.088h-104.464c-2.911 0-4.521-1.698-5.359-3.123-1.624-2.761-1.526-6.328.223-9.475l29.792-52.615c.027-.047.053-.094.079-.142 40.452-72.54 96.597-68.343 157.684-58.97 17.353 2.61 33.741 5.075 47.255 3.826 10.488-.961 76.246-8.448 87.146-9.458 2.652-.245 5.291.601 7.421 2.38 2.335 1.952 3.77 4.736 4.038 7.839.173 1.997.633 7.301-12.679 13.064-27.612 11.955-56.944 21.98-80.475 27.506-5.376 1.263-8.711 6.645-7.449 12.021 1.263 5.377 6.646 8.709 12.021 7.449 24.634-5.785 55.195-16.217 83.849-28.623 9.992-4.326 16.176-9.539 19.865-14.868l103.718-25.043c9.257-2.033 15.938.774 17.897 7.517 1.567 5.382-.522 12.137-8.704 15.114z"/><path d="m198.115 154.322c5.523 0 10-4.477 10-10v-76.656c2.637-63.504 93.1-63.456 95.713 0v76.655c.528 13.268 19.476 13.258 20 0v-76.655c-3.738-90.044-132.009-89.974-135.713 0v76.655c0 5.523 4.477 10.001 10 10.001z"/><path d="m212.864 261.579-5.77 38.164c-.558 3.693.988 7.39 4.01 9.585s7.015 2.523 10.355.852l34.513-17.282 34.513 17.282c3.328 1.668 7.327 1.349 10.355-.852 3.021-2.195 4.568-5.892 4.01-9.585l-5.771-38.164 27.101-27.484c5.685-5.579 2.388-15.715-5.487-16.887l-38.079-6.306-17.764-34.267c-3.548-7.131-14.208-7.128-17.756 0l-17.765 34.267-38.079 6.306c-3.685.61-6.723 3.223-7.877 6.775-1.154 3.553-.232 7.452 2.39 10.112zm24.673-31.762c3.109-.515 5.794-2.465 7.244-5.263l11.191-21.587 11.19 21.587c1.45 2.798 4.135 4.748 7.244 5.263l23.988 3.972-17.072 17.313c-2.212 2.244-3.237 5.4-2.767 8.516l3.635 24.042-21.741-10.887c-2.818-1.411-6.137-1.411-8.955 0l-21.741 10.887 3.635-24.042c.471-3.116-.554-6.272-2.767-8.517l-17.072-17.313z"/></g></g></svg>